<?xml version="1.0" encoding="UTF-8"?>
<svg xmlns="http://www.w3.org/2000/svg" width="1200" height="600" viewBox="0 0 1200 600">
  <defs>
    <linearGradient id="pgbg" x1="0" x2="0" y1="0" y2="1">
      <stop offset="0%" stop-color="#071018"/>
      <stop offset="100%" stop-color="#081422"/>
    </linearGradient>
  </defs>

  <rect width="1200" height="600" fill="url(#pgbg)"/>
  <rect x="120" y="80" width="960" height="440" rx="12" fill="#071827" stroke="#123244"/>

  <!-- Header -->
  <text x="140" y="112" font-family="Arial, Helvetica, sans-serif" font-size="18" fill="#e6f6ff">audio_scripter — Plugin UI</text>

  <!-- Display area -->
  <rect x="140" y="140" width="680" height="220" rx="8" fill="#081a26" stroke="#11334a"/>
  <text x="160" y="168" font-family="Arial" font-size="13" fill="#9bd8ff">Output meter</text>
  <rect x="160" y="182" width="640" height="20" rx="4" fill="#06202b" stroke="#0f3a4a"/>
  <rect x="160" y="210" width="640" height="120" rx="6" fill="#071827"/>
  <path d="M170 260 C 230 220 300 320 380 260 C 460 200 540 300 620 260 C 700 220 780 300 820 260" fill="none" stroke="#44e0a8" stroke-width="4" stroke-linecap="round"/>

  <!-- Knobs grid -->
  <g transform="translate(840,150)">
    <!-- 8 knobs -->
    <g transform="translate(0,0)">
      <circle cx="40" cy="40" r="36" fill="#0f2933" stroke="#234"/>
      <circle cx="40" cy="40" r="30" fill="#153b44"/>
      <text x="40" y="86" font-family="Arial" font-size="12" fill="#cfeef0" text-anchor="middle">p1</text>
    </g>
    <g transform="translate(120,0)">
      <circle cx="40" cy="40" r="36" fill="#0f2933" stroke="#234"/>
      <circle cx="40" cy="40" r="30" fill="#153b44"/>
      <text x="40" y="86" font-family="Arial" font-size="12" fill="#cfeef0" text-anchor="middle">p2</text>
    </g>
    <g transform="translate(240,0)">
      <circle cx="40" cy="40" r="36" fill="#0f2933" stroke="#234"/>
      <circle cx="40" cy="40" r="30" fill="#153b44"/>
      <text x="40" y="86" font-family="Arial" font-size="12" fill="#cfeef0" text-anchor="middle">p3</text>
    </g>
    <g transform="translate(360,0)">
      <circle cx="40" cy="40" r="36" fill="#0f2933" stroke="#234"/>
      <circle cx="40" cy="40" r="30" fill="#153b44"/>
      <text x="40" y="86" font-family="Arial" font-size="12" fill="#cfeef0" text-anchor="middle">p4</text>
    </g>
    <g transform="translate(0,120)">
      <circle cx="40" cy="40" r="36" fill="#0f2933" stroke="#234"/>
      <circle cx="40" cy="40" r="30" fill="#153b44"/>
      <text x="40" y="86" font-family="Arial" font-size="12" fill="#cfeef0" text-anchor="middle">p5</text>
    </g>
    <g transform="translate(120,120)">
      <circle cx="40" cy="40" r="36" fill="#0f2933" stroke="#234"/>
      <circle cx="40" cy="40" r="30" fill="#153b44"/>
      <text x="40" y="86" font-family="Arial" font-size="12" fill="#cfeef0" text-anchor="middle">p6</text>
    </g>
    <g transform="translate(240,120)">
      <circle cx="40" cy="40" r="36" fill="#0f2933" stroke="#234"/>
      <circle cx="40" cy="40" r="30" fill="#153b44"/>
      <text x="40" y="86" font-family="Arial" font-size="12" fill="#cfeef0" text-anchor="middle">p7</text>
    </g>
    <g transform="translate(360,120)">
      <circle cx="40" cy="40" r="36" fill="#0f2933" stroke="#234"/>
      <circle cx="40" cy="40" r="30" fill="#153b44"/>
      <text x="40" y="86" font-family="Arial" font-size="12" fill="#cfeef0" text-anchor="middle">p8</text>
    </g>
  </g>

  <text x="140" y="420" font-family="Arial" font-size="12" fill="#8fbfcf">Mockup screenshot — plugin UI with macros</text>
</svg>
